<?xml version="1.0" encoding="utf-8"?>
<!-- Generator: Adobe Illustrator 16.0.0, SVG Export Plug-In . SVG Version: 6.00 Build 0)  -->
<!DOCTYPE svg PUBLIC "-//W3C//DTD SVG 1.1//EN" "http://www.w3.org/Graphics/SVG/1.1/DTD/svg11.dtd">
<svg version="1.1" id="Layer_1" xmlns="http://www.w3.org/2000/svg" xmlns:xlink="http://www.w3.org/1999/xlink" x="0px" y="0px"
	 width="63.498px" height="100px" viewBox="11.603 -6.234 63.498 100" enable-background="new 11.603 -6.234 63.498 100"
	 xml:space="preserve">
<g>
	<path d="M23.361,74.623c-1.185-0.948-2.915-0.755-3.863,0.429l-7.292,9.105c-0.948,1.185-0.757,2.915,0.428,3.864
		c0.507,0.405,1.113,0.602,1.716,0.602c0.805,0,1.604-0.353,2.148-1.03l7.292-9.106C24.737,77.299,24.546,75.572,23.361,74.623z"/>
	<path d="M69.089,7.358c-3.319,0-6.015,2.692-6.015,6.011c0,0.97,0.253,1.873,0.659,2.684l-6.088,7.996
		c-0.921,1.208-0.688,2.932,0.521,3.852c0.496,0.378,1.081,0.562,1.661,0.562c0.831,0,1.647-0.373,2.19-1.083l6.159-8.089
		c0.299,0.046,0.6,0.092,0.909,0.092c3.322,0,6.015-2.692,6.015-6.013C75.101,10.05,72.409,7.358,69.089,7.358z"/>
	<path d="M52.302,82.721c-0.194-1.51-1.597-2.568-3.072-2.381c-1.509,0.192-2.571,1.567-2.381,3.073l1.012,7.952
		c0.177,1.387,1.358,2.4,2.722,2.4c0.118,0,0.233-0.007,0.352-0.021c1.505-0.192,2.57-1.568,2.379-3.073L52.302,82.721z"/>
	<path d="M35.876,6.234c0.002,0.093-0.003,0.187,0.009,0.282l1.87,13.816c0.188,1.378,1.366,2.379,2.72,2.379
		c0.123,0,0.248-0.008,0.372-0.025c1.504-0.204,2.558-1.588,2.355-3.092l-1.87-13.816c-0.021-0.148-0.061-0.29-0.103-0.43
		c0.304-0.212,0.601-0.441,0.871-0.712c2.489-2.487,2.486-6.519,0-9.005c-2.487-2.487-6.517-2.487-9.004,0
		c-2.487,2.487-2.489,6.519,0,9.005C33.894,5.436,34.86,5.95,35.876,6.234z"/>
	<path d="M43.48,58.788c-0.275-1.305-0.524-2.62-0.716-3.952c-0.158-1.097-0.302-2.221-0.437-3.356
		c-2.538,0.223-5.159,0.43-7.818,0.548c0.8,2.146,1.625,4.216,2.421,6.169c1.336,0.129,2.627,0.245,3.834,0.363
		C41.668,58.649,42.576,58.721,43.48,58.788z"/>
	<path d="M31.904,52.116c-6.08,0.131-12.227-0.285-17.763-2.014c-0.016,0.277-0.024,0.559-0.031,0.839
		c4.936,4.62,12.875,6.15,20.026,6.958C33.387,56.042,32.63,54.104,31.904,52.116z"/>
	<path d="M14.203,54.225c0.331,3.808,1.42,7.401,3.119,10.625c4.248,1.088,9.228-0.415,13.24-1.602
		c1.715-0.506,3.438-1.005,5.153-1.53c-0.152-0.356-0.313-0.706-0.459-1.062c-0.037-0.093-0.076-0.187-0.114-0.279
		C27.976,59.48,20.003,58.437,14.203,54.225z"/>
	<path d="M45.885,51.159c-0.355,0.03-0.722,0.065-1.084,0.098c0.089,0.753,0.183,1.495,0.279,2.225
		c0.198,1.484,0.456,2.95,0.757,4.401c6.645-3.183,12.568-7.359,17.595-12.578C58.126,48.452,52.251,50.567,45.885,51.159z"/>
	<path d="M49.166,59.042c7.079,0.102,14.078-0.659,20.836-2.801c0.233-1.461,0.36-2.956,0.36-4.483c0-3.124-0.519-6.127-1.458-8.934
		C63.505,49.58,56.835,55.083,49.166,59.042z"/>
	<path d="M50.477,78.664c0.468-0.144,0.935-0.299,1.391-0.465c-3.629-4.997-6.187-10.716-7.776-16.819
		c-1.613,0.659-3.258,1.283-4.923,1.869C42.048,69.125,45.735,74.463,50.477,78.664z"/>
	<path d="M30.914,49.303c-2.347-6.924-4.123-14.33-3.771-21.293C20.415,32.292,15.627,39.347,14.4,47.569
		c4.728,1.514,9.865,1.762,14.788,1.742C29.759,49.308,30.336,49.305,30.914,49.303z"/>
	<path d="M36.777,64.066c-2.949,0.967-5.942,1.812-8.923,2.497c-2.901,0.667-5.944,1.25-8.893,1.021
		c5.065,7.43,13.594,12.312,23.265,12.312c1.833,0,3.62-0.183,5.355-0.516C43.094,75.102,39.534,69.841,36.777,64.066z"/>
	<path d="M42.058,49.013c-0.822-8.355-0.773-17.416,1.871-25.335c-0.564-0.033-1.131-0.056-1.703-0.056
		c-4.479,0-8.709,1.051-12.467,2.913c-0.767,7.314,1.209,15.382,3.764,22.757C36.364,49.268,39.23,49.208,42.058,49.013z"/>
	<path d="M45.885,48.659c8.221-1.001,15.401-4.354,21.636-9.227c-3.977-8.14-11.759-14.078-21.034-15.488
		c-2.723,7.716-2.744,16.683-1.948,24.859C44.989,48.755,45.44,48.712,45.885,48.659z"/>
	<path d="M38.554,60.805c-0.183-0.022-0.366-0.04-0.548-0.064c0.032,0.072,0.062,0.146,0.093,0.216
		C38.251,60.908,38.402,60.856,38.554,60.805z"/>
	<path d="M46.714,61.495c1.578,5.706,4.048,11.047,7.523,15.71C61.647,73.701,67.275,67.063,69.417,59
		C62.044,61.146,54.408,61.816,46.714,61.495z"/>
</g>
</svg>
